<?xml version="1.0" standalone="no"?>
<!DOCTYPE svg PUBLIC "-//W3C//DTD SVG 20010904//EN"
 "http://www.w3.org/TR/2001/REC-SVG-20010904/DTD/svg10.dtd">
<svg version="1.0" xmlns="http://www.w3.org/2000/svg"
 width="534.000000pt" height="403.000000pt" viewBox="0 0 534.000000 403.000000"
 preserveAspectRatio="xMidYMid meet">

<g transform="translate(0.000000,403.000000) scale(0.100000,-0.100000)"
fill="#000000" stroke="none">
<path d="M2450 3623 c-96 -52 -258 -139 -360 -193 -102 -54 -268 -143 -370
-198 l-185 -99 -3 -50 -3 -51 158 -84 c87 -47 291 -156 453 -243 162 -87 340
-182 394 -211 54 -30 102 -54 106 -54 3 0 92 45 196 101 104 56 223 119 264
141 41 22 145 78 231 124 85 46 161 84 167 84 9 0 12 -36 12 -126 l0 -125 -30
-26 c-29 -24 -30 -27 -30 -113 0 -49 4 -91 8 -94 5 -3 22 8 37 24 16 17 33 30
38 30 5 0 26 -13 47 -30 20 -16 40 -27 44 -23 3 3 6 44 6 90 0 82 -1 86 -32
116 l-32 32 -4 135 c-1 74 1 140 5 146 4 6 47 32 96 58 l87 48 0 48 c0 54 9
47 -185 150 -97 52 -438 234 -712 381 -111 60 -208 109 -215 108 -7 0 -92 -43
-188 -96z"/>
<path d="M2080 2583 c-1 -12 -1 -369 -1 -446 1 -64 2 -68 29 -78 136 -52 323
-172 443 -286 l89 -85 88 83 c127 121 287 226 430 282 l42 17 0 260 c0 143 -2
260 -6 260 -3 0 -49 -18 -102 -41 -165 -69 -332 -166 -417 -240 l-33 -30 -34
29 c-87 76 -293 193 -441 251 -85 34 -87 34 -87 24z m1030 -173 c0 -27 -6 -32
-72 -63 -80 -37 -221 -122 -279 -168 -20 -16 -40 -29 -43 -29 -3 0 -6 15 -6
34 0 39 26 63 145 136 74 46 222 118 243 119 7 1 12 -11 12 -29z m-120 -184
c0 -31 -5 -37 -64 -71 -35 -20 -96 -62 -136 -91 -39 -30 -73 -54 -76 -54 -2 0
-4 17 -4 39 0 37 4 41 73 89 59 40 194 121 205 122 1 0 2 -15 2 -34z m-130
-210 c0 -29 -8 -39 -57 -77 -102 -78 -93 -75 -93 -31 0 38 4 43 68 91 37 28
70 51 75 51 4 0 7 -15 7 -34z"/>
<path d="M1948 2513 l-38 -23 0 -284 0 -284 154 -75 c179 -88 353 -203 486
-321 l95 -84 70 67 c134 128 284 230 489 332 77 38 145 69 152 69 15 0 22 220
14 444 l-5 139 -37 24 -38 23 0 -274 0 -274 -37 -13 c-111 -35 -352 -181 -508
-306 l-105 -84 -108 86 c-125 101 -308 216 -445 280 l-97 45 -2 269 -3 268
-37 -24z"/>
<path d="M1250 975 l0 -215 126 0 125 0 -3 48 c-3 52 5 48 -106 51 -32 1 -33
2 -30 39 l3 37 58 3 58 3 -3 42 -3 42 -58 3 -58 3 3 32 3 32 68 3 67 3 0 44 0
45 -125 0 -125 0 0 -215z"/>
<path d="M1590 975 l0 -215 100 0 c180 0 210 29 210 208 0 192 -27 222 -202
222 l-108 0 0 -215z m184 109 c12 -12 16 -37 16 -107 0 -51 -4 -97 -8 -103 -4
-7 -20 -14 -37 -15 l-30 -4 -3 123 -3 122 25 0 c14 0 32 -7 40 -16z"/>
<path d="M1990 975 l0 -215 59 0 60 0 -2 213 -2 212 -57 3 -58 3 0 -216z"/>
<path d="M2210 975 l0 -215 55 0 55 0 1 103 1 102 32 -100 32 -100 61 -3 61
-3 4 55 c1 31 2 128 0 216 l-3 160 -55 0 -56 0 4 -100 c1 -55 0 -100 -3 -100
-3 0 -19 45 -35 100 l-29 100 -62 0 -63 0 0 -215z"/>
<path d="M2590 1145 l0 -45 50 0 50 0 0 -170 0 -170 60 0 60 0 0 170 0 170 50
0 50 0 0 45 0 45 -160 0 -160 0 0 -45z"/>
<path d="M2987 1183 c-4 -3 -7 -100 -7 -215 l0 -208 130 0 130 0 0 44 c0 50
-10 56 -92 56 l-48 0 0 40 0 40 61 0 60 0 -3 43 -3 42 -57 3 -58 3 0 34 0 35
70 0 70 0 0 45 0 45 -123 0 c-68 0 -127 -3 -130 -7z"/>
<path d="M3330 975 l0 -215 55 0 54 0 3 63 c3 54 6 62 22 62 15 0 24 -14 40
-62 l20 -63 59 0 c52 0 58 2 52 18 -4 9 -17 42 -28 72 l-21 56 25 33 c19 26
24 44 24 94 -1 125 -43 157 -205 157 l-100 0 0 -215z m188 93 c16 -35 6 -77
-24 -90 -40 -19 -54 -4 -54 55 0 30 3 57 7 61 16 16 58 0 71 -26z"/>
<path d="M3730 975 l0 -215 55 0 55 0 0 102 c0 56 3 99 6 96 3 -4 18 -48 33
-100 l28 -93 67 -3 66 -3 0 216 0 215 -61 0 -62 0 6 -100 c3 -55 2 -98 -2 -95
-5 2 -21 47 -36 100 l-28 95 -64 0 -63 0 0 -215z"/>
</g>
</svg>
